<?xml version="1.0" encoding="UTF-8"?>
<svg width="27px" height="27px" viewBox="0 0 27 27" version="1.1" xmlns="http://www.w3.org/2000/svg" xmlns:xlink="http://www.w3.org/1999/xlink">
    <!-- Generator: Sketch 57.1 (83088) - https://sketch.com -->
    <title>snowflake</title>
    <desc>Created with Sketch.</desc>
    <g id="Page-1" stroke="none" stroke-width="1" fill="none" fill-rule="evenodd">
        <g id="Desktop" transform="translate(-575.000000, -146.000000)" fill="#94BF41" fill-rule="nonzero">
            <g id="Group-2-Copy" transform="translate(385.000000, 110.000000)">
                <g id="snowflake" transform="translate(190.000000, 36.000000)">
                    <path d="M27.0001055,13.5 C27.0001055,13.1089746 26.6831191,12.7919355 26.292041,12.7919355 L25.1779219,12.7919355 L26.2385684,11.7312891 C26.5151074,11.45475 26.5151074,11.0064023 26.2385684,10.729916 C25.9620293,10.4534297 25.5137344,10.453377 25.2371953,10.729916 L23.175123,12.7919883 L22.1270273,12.7919883 L23.1876738,11.7313418 C23.4642129,11.4548027 23.4642129,11.0064551 23.1876738,10.7299687 C22.911082,10.4534297 22.4627871,10.4534297 22.1863008,10.7299687 L20.1242285,12.792041 L15.209543,12.792041 L18.684791,9.31679297 L21.6009492,9.31679297 C21.9920273,9.31679297 22.3090137,8.99980664 22.3090137,8.60872852 C22.3090137,8.21765039 21.9920273,7.90066406 21.6009492,7.90066406 L20.1009727,7.90066406 L20.8421016,7.15953516 L23.7582598,7.15953516 C24.1493379,7.15953516 24.4663242,6.84254883 24.4663242,6.4514707 C24.4663242,6.06039258 24.1493379,5.74340625 23.7582598,5.74340625 L22.2582832,5.74340625 L23.0461348,4.95555469 C23.3226738,4.67901563 23.3226738,4.23066797 23.0461348,3.95418164 C22.7695957,3.67764258 22.321248,3.67764258 22.0447617,3.95418164 L21.2569102,4.7420332 L21.2569102,3.2418457 C21.2569102,2.85076758 20.9399238,2.53378125 20.5488457,2.53378125 C20.1577676,2.53378125 19.8407812,2.85076758 19.8407812,3.2418457 L19.8407812,6.15800391 L19.0996523,6.89913281 L19.0996523,5.39920898 C19.0996523,5.00813086 18.782666,4.69114453 18.3915879,4.69114453 C18.0005098,4.69114453 17.6835234,5.00813086 17.6835234,5.39920898 L17.6835234,8.31536719 L14.2082754,11.7906152 L14.2082754,6.87592969 L16.2703477,4.81385742 C16.5468867,4.53731836 16.5468867,4.0889707 16.2703477,3.81248437 C15.9937559,3.53594531 15.5454609,3.53594531 15.2689746,3.81248437 L14.2082754,4.87313086 L14.2082754,3.82498242 L16.2703477,1.76291016 C16.5468867,1.48637109 16.5468867,1.03802344 16.2703477,0.761537109 C15.9937559,0.484998047 15.5454609,0.484998047 15.2689746,0.761537109 L14.2082754,1.82218359 L14.2082754,0.708064453 C14.2081699,0.316986328 13.8911836,0 13.5001055,0 C13.1090801,0 12.792041,0.316986328 12.792041,0.708064453 L12.792041,1.82218359 L11.7313945,0.761537109 C11.4548555,0.484998047 11.0065605,0.484998047 10.7300215,0.761537109 C10.4534824,1.03807617 10.4534824,1.48642383 10.7300215,1.76291016 L12.7920937,3.82498242 L12.7920937,4.87313086 L11.7314473,3.81248438 C11.4549082,3.53594531 11.0066133,3.53594531 10.7300742,3.81248438 C10.4535352,4.08902344 10.4535352,4.53737109 10.7300742,4.81385742 L12.7921465,6.87592969 L12.7921465,11.7906152 L9.31689844,8.31536719 L9.31689844,5.39915625 C9.31689844,5.00807813 8.99991211,4.6910918 8.60883398,4.6910918 C8.21775586,4.6910918 7.90076953,5.00807813 7.90076953,5.39915625 L7.90076953,6.89913281 L7.15964063,6.15800391 L7.15964063,3.24179297 C7.15964063,2.85071484 6.8426543,2.53372852 6.45157617,2.53372852 C6.06049805,2.53372852 5.74351172,2.85071484 5.74351172,3.24179297 L5.74351172,4.74176953 L4.95555469,3.95407617 C4.67901562,3.67753711 4.23066797,3.67753711 3.95418164,3.95407617 C3.67764258,4.23061523 3.67764258,4.67896289 3.95418164,4.95544922 L4.7420332,5.74330078 L3.24195117,5.74330078 C2.85087305,5.74330078 2.53388672,6.06028711 2.53388672,6.45136523 C2.53388672,6.84244336 2.85087305,7.15942969 3.24195117,7.15942969 L6.15810937,7.15942969 L6.89923828,7.90055859 L5.39931445,7.90055859 C5.00823633,7.90055859 4.69125,8.21754492 4.69125,8.60862305 C4.69125,8.99970117 5.00823633,9.3166875 5.39931445,9.3166875 L8.31547266,9.3166875 L11.7907207,12.7919355 L6.87603516,12.7919355 L4.81391016,10.7298633 C4.53737109,10.4533242 4.08907617,10.4533242 3.81253711,10.7298633 C3.53599805,11.0064023 3.53599805,11.45475 3.81253711,11.7312363 L4.87318359,12.7918828 L3.82508789,12.7918828 L1.76301562,10.7298633 C1.48647656,10.4533242 1.03818164,10.4533242 0.761642578,10.7298633 C0.485103516,11.0064023 0.485103516,11.45475 0.761642578,11.7312363 L1.82228906,12.7918828 L0.708169922,12.7918828 C0.317091797,12.7918828 0.00010546875,13.1089219 0.00010546875,13.4999473 C0.00010546875,13.8910254 0.317091797,14.2080117 0.708169922,14.2080117 L1.8223418,14.2080117 L0.761695312,15.2687109 C0.48515625,15.54525 0.48515625,15.9935977 0.761695312,16.270084 C0.899964844,16.4083535 1.08116016,16.4774883 1.26235547,16.4774883 C1.44355078,16.4774883 1.62479883,16.4083535 1.76301562,16.270084 L3.82508789,14.2080117 L4.87323633,14.2080117 L3.81258984,15.2687109 C3.53605078,15.54525 3.53605078,15.9935977 3.81258984,16.270084 C3.95085937,16.4083535 4.13205469,16.4774883 4.31325,16.4774883 C4.49444531,16.4774883 4.67569336,16.4083535 4.81391016,16.270084 L6.87598242,14.2080117 L11.790668,14.2080117 L8.31541992,17.6832598 L5.39926172,17.6832598 C5.00818359,17.6832598 4.69119727,18.0002461 4.69119727,18.3913242 C4.69119727,18.7824023 5.00818359,19.0993887 5.39926172,19.0993887 L6.89923828,19.0993887 L6.15810937,19.8405176 L3.24189844,19.8405176 C2.85082031,19.8405176 2.53383398,20.1575039 2.53383398,20.548582 C2.53383398,20.9396602 2.85082031,21.2566465 3.24189844,21.2566465 L4.741875,21.2566465 L3.95402344,22.044498 C3.67748437,22.3210371 3.67748437,22.769332 3.95402344,23.0458711 C4.09229297,23.1841406 4.27348828,23.2532754 4.45468359,23.2532754 C4.63587891,23.2532754 4.81712695,23.1841406 4.95534375,23.0458711 L5.74319531,22.2580195 L5.74319531,23.7579961 C5.74319531,24.1490742 6.06018164,24.4660605 6.45125977,24.4660605 C6.84233789,24.4660605 7.15932422,24.1490742 7.15932422,23.7579961 L7.15932422,20.8418379 L7.90045312,20.100709 L7.90045312,21.6006855 C7.90045312,21.9917637 8.21743945,22.30875 8.60851758,22.30875 C8.9995957,22.30875 9.31658203,21.9917637 9.31658203,21.6006855 L9.31658203,18.6845273 L12.7918301,15.2092793 L12.7918301,20.1239648 L10.7297578,22.1860371 C10.4532187,22.4625762 10.4532187,22.9109238 10.7297578,23.1874102 C11.0062969,23.4639492 11.4546445,23.4639492 11.7311309,23.1874102 L12.7917773,22.1267637 L12.7917773,23.1748594 L10.7297051,25.2369316 C10.453166,25.5134707 10.453166,25.9618184 10.7297051,26.2383047 C10.8679746,26.3765742 11.0491699,26.445709 11.2303652,26.445709 C11.4116133,26.445709 11.5928086,26.3765742 11.7310254,26.2383047 L12.7916719,25.1776582 L12.7916719,26.2917773 C12.7916719,26.6828555 13.1087109,26.9998418 13.4997363,26.9998418 C13.8908145,26.9998418 14.2078008,26.6828555 14.2078008,26.2917773 L14.2078008,25.1776582 L15.2685,26.2383574 C15.5450391,26.5148965 15.9933867,26.5148965 16.269873,26.2383574 C16.5463594,25.9618184 16.5464121,25.5135234 16.269873,25.2369844 L14.2078008,23.1749121 L14.2078008,22.1267637 L15.2685,23.1874629 C15.4067695,23.3257324 15.5880176,23.3948672 15.7691602,23.3948672 C15.9503027,23.3948672 16.1316035,23.3257324 16.2698203,23.1874629 C16.5463594,22.9109238 16.5463594,22.4626289 16.2698203,22.1860898 L14.207748,20.1240176 L14.207748,15.2096484 L17.6829961,18.6848965 L17.6829961,21.6010547 C17.6829961,21.9921328 17.9999824,22.3091191 18.3910605,22.3091191 C18.7821387,22.3091191 19.099125,21.9921328 19.099125,21.6010547 L19.099125,20.1010781 L19.8402539,20.842207 L19.8402539,23.7583652 C19.8402539,24.1494434 20.1572402,24.4664297 20.5483184,24.4664297 C20.9393965,24.4664297 21.2563828,24.1494434 21.2563828,23.7583652 L21.2563828,22.2583887 L22.0442344,23.0462402 C22.1825039,23.1845098 22.363752,23.2536445 22.5448945,23.2536445 C22.7261426,23.2536445 22.9073379,23.1845098 23.0455547,23.0462402 C23.3220937,22.7697012 23.3220937,22.3214062 23.0455547,22.0448672 L22.2577031,21.2570156 L23.7576797,21.2570156 C24.1487578,21.2570156 24.4657441,20.9400293 24.4657441,20.5489512 C24.4657441,20.157873 24.1487578,19.8408867 23.7576797,19.8408867 L20.8415215,19.8408867 L20.1003926,19.0997578 L21.6003691,19.0997578 C21.9914473,19.0997578 22.3084336,18.7827715 22.3084336,18.3916934 C22.3084336,18.0006152 21.9914473,17.6836289 21.6003691,17.6836289 L18.6842109,17.6836289 L15.2089629,14.2083809 L20.1236484,14.2083809 L22.1857207,16.2704531 C22.3239902,16.4087227 22.5052383,16.4778574 22.6863809,16.4778574 C22.8675234,16.4778574 23.0488242,16.4087227 23.187041,16.2704531 C23.4635801,15.9939141 23.4635801,15.5456191 23.187041,15.2690801 L22.1263418,14.2083809 L23.1744902,14.2083809 L25.2365625,16.2704531 C25.374832,16.4087227 25.5560801,16.4778574 25.7372227,16.4778574 C25.918418,16.4778574 26.099666,16.4087227 26.2378828,16.2704531 C26.5144219,15.9939141 26.5144219,15.5456191 26.2378828,15.2690801 L25.1771836,14.2083809 L26.2913027,14.2083809 C26.6830664,14.2080645 27.0001055,13.8910781 27.0001055,13.5 Z" id="Path"></path>
                </g>
            </g>
        </g>
    </g>
</svg>