<?xml version="1.0" encoding="UTF-8"?>
<svg width="71px" height="71px" viewBox="0 0 71 71" version="1.1" xmlns="http://www.w3.org/2000/svg" xmlns:xlink="http://www.w3.org/1999/xlink">
    <!-- Generator: Sketch 57.1 (83088) - https://sketch.com -->
    <title>sunrise copy</title>
    <desc>Created with Sketch.</desc>
    <g id="Page-1" stroke="none" stroke-width="1" fill="none" fill-rule="evenodd">
        <g id="Desktop" transform="translate(-826.000000, -469.000000)" fill="#F8B904" fill-rule="nonzero">
            <g id="sunrise-copy" transform="translate(826.000000, 469.000000)">
                <path d="M71,33.0000744 L62.0124437,33.0000744 C61.5409221,27.373115 59.2920458,22.2452194 55.8120242,18.1704734 L62.1703675,11.8658519 L59.0328889,8.75488201 L52.6745456,15.0595035 C48.5652286,11.6088846 43.3936381,9.3790092 37.7187313,8.91147146 L37.7187313,0 L33.2812687,0 L33.2812687,8.91147146 C27.6063619,9.3790092 22.4347714,11.6088846 18.3253044,15.0595035 L11.9669611,8.75488201 L8.82948256,11.8658519 L15.1878258,18.1704734 C11.7078042,22.2452194 9.45892795,27.3729663 8.98740632,33.0000744 L0,33.0000744 L0,37.4000446 L9.07244219,37.4000446 C9.27415866,39.6853881 9.68074109,41.9131816 10.4282169,44 L15.1932249,44 C13.9979236,41.3002075 13.3125375,38.3318485 13.3125375,35.2000595 C13.3125375,23.0699536 23.2665332,13.2000595 35.5,13.2000595 C47.7334668,13.2000595 57.6874625,23.0699536 57.6874625,35.2000595 C57.6874625,38.3319972 57.0019264,41.3002075 55.8067751,44 L60.5717831,44 C61.3192589,41.9130329 61.7258413,39.6853881 61.9275578,37.4000446 L71,37.4000446 L71,33.0000744 Z" id="Path"></path>
                <polygon id="Path" transform="translate(35.000000, 55.500000) rotate(-180.000000) translate(-35.000000, -55.500000) " points="35 40 20 54.8513166 23.1625094 57.9824786 32.7635676 48.4765882 32.7635676 71 37.2364324 71 37.2364324 48.4765882 46.8374906 57.9824786 50 54.8513166"></polygon>
            </g>
        </g>
    </g>
</svg>