<?xml version="1.0" encoding="UTF-8"?>
<svg width="11px" height="31px" viewBox="0 0 11 31" version="1.1" xmlns="http://www.w3.org/2000/svg" xmlns:xlink="http://www.w3.org/1999/xlink">
    <!-- Generator: Sketch 57.1 (83088) - https://sketch.com -->
    <title>thermometer</title>
    <desc>Created with Sketch.</desc>
    <g id="Page-1" stroke="none" stroke-width="1" fill="none" fill-rule="evenodd">
        <g id="Desktop" transform="translate(-260.000000, -144.000000)" fill="#00BAB6" fill-rule="nonzero">
            <g id="Group-2" transform="translate(62.000000, 110.000000)">
                <g id="thermometer" transform="translate(198.000000, 34.000000)">
                    <path d="M5.50204676,0 C3.57061266,0.00226234071 2.00545032,1.60091269 2.00323536,3.57367149 L2.00323536,20.6905214 C0.51781113,21.928843 -0.220974533,23.8738367 0.0581088602,25.8114264 C0.482371973,28.8824475 3.26394312,31.0205627 6.27043214,30.5870165 C8.98736711,30.1952206 11.0055869,27.8175033 10.9999745,25.0150834 C11.0049828,23.3395136 10.2706271,21.7511466 9.00065682,20.6905214 L9.00065682,3.57367149 C8.9986432,1.60091269 7.43348086,0.00226234071 5.50204676,0 Z M10.0004151,25.0150834 C10.0036252,27.5523985 7.99245303,29.6123601 5.50808755,29.6156552 C3.02372202,29.6191471 1.00691177,27.5647384 1.00368634,25.0272178 C1.00187781,23.5789101 1.66857693,22.2145146 2.80303272,21.3455711 C2.92888199,21.2491132 3.00298205,21.0977423 3.00298205,20.9371162 L3.00298205,19.3993433 L4.00252738,19.3993433 L4.00252738,18.3784119 L3.00298205,18.3784119 L3.00298205,16.846809 L4.00252738,16.846809 L4.00252738,15.8258775 L3.00298205,15.8258775 L3.00298205,14.2942747 L4.00252738,14.2942747 L4.00252738,13.2733431 L3.00298205,13.2733431 L3.00298205,11.7417403 L4.00252738,11.7417403 L4.00252738,10.7208088 L3.00298205,10.7208088 L3.00298205,9.18920593 L4.00252738,9.18920593 L4.00252738,8.16827446 L3.00298205,8.16827446 L3.00298205,6.63667157 L4.00252738,6.63667157 L4.00252738,5.61574009 L3.00298205,5.61574009 L3.00298205,3.57367149 C3.00298205,2.16382352 4.12173182,1.02113713 5.50204676,1.02113713 C6.88216035,1.02113713 8.00111148,2.16382352 8.00111148,3.57367149 L8.00111148,20.9381446 C8.00111148,21.0987706 8.07521154,21.2501416 8.2010608,21.3463938 C9.33612064,22.2089616 10.0036252,23.5700664 10.0004151,25.0150834 L10.0004151,25.0150834 Z" id="Shape"></path>
                    <path d="M5.97130559,22.4872641 L5.97130559,4.71428571 L5.02869441,4.71428571 L5.02869441,22.4872641 C3.75339683,22.7669367 2.93060587,24.1041022 3.19094431,25.4741102 C3.45128276,26.8441183 4.6960081,27.7280142 5.97130559,27.4483416 C7.24660317,27.1686691 8.06939413,25.8315036 7.80905569,24.4614956 C7.62011567,23.4670362 6.89682678,22.6902359 5.97130559,22.4872641 Z M5.5,26.4873369 C4.71898471,26.4873369 4.08589327,25.8072286 4.08589327,24.9684149 C4.08589327,24.1293971 4.71898471,23.4492889 5.5,23.4492889 C6.28101529,23.4492889 6.91410673,24.1293971 6.91410673,24.9684149 C6.91410673,25.8072286 6.28101529,26.4873369 5.5,26.4873369 Z" id="Shape"></path>
                </g>
            </g>
        </g>
    </g>
</svg>