<?xml version="1.0" encoding="UTF-8"?>
<svg width="30px" height="15px" viewBox="0 0 30 15" version="1.1" xmlns="http://www.w3.org/2000/svg" xmlns:xlink="http://www.w3.org/1999/xlink">
    <!-- Generator: Sketch 57.1 (83088) - https://sketch.com -->
    <title>sea</title>
    <desc>Created with Sketch.</desc>
    <g id="Page-1" stroke="none" stroke-width="1" fill="none" fill-rule="evenodd">
        <g id="Desktop" transform="translate(-897.000000, -152.000000)" fill="#F8B904" fill-rule="nonzero">
            <g id="Group-2-Copy-2" transform="translate(708.000000, 110.000000)">
                <g id="sea" transform="translate(189.000000, 42.000000)">
                    <path d="M29.0141455,12.0822545 C27.9541091,12.0822545 26.9479636,11.6204727 26.2536,10.8152727 C26.0671636,10.5990545 25.7956364,10.4745818 25.5100364,10.4745818 C25.2244364,10.4745818 24.9530182,10.5989455 24.7664727,10.8152727 C24.0723273,11.6203636 23.0661818,12.0821455 22.0060364,12.0821455 C20.9458909,12.0821455 19.9398545,11.6203636 19.2454909,10.8151636 C19.0590545,10.5989455 18.7875273,10.4744727 18.5019273,10.4744727 C18.2163273,10.4744727 17.9449091,10.5988364 17.7583636,10.8151636 C17.0642182,11.6202545 16.0580727,12.0820364 14.9979273,12.0820364 C13.9377818,12.0820364 12.9317455,11.6202545 12.2374909,10.8151636 C12.0509455,10.5988364 11.7795273,10.4744727 11.4939273,10.4744727 C11.2083273,10.4744727 10.9369091,10.5988364 10.7503636,10.8151636 C10.0561091,11.6203636 9.04996364,12.0821455 7.98981818,12.0821455 C6.92967273,12.0821455 5.92363636,11.6203636 5.22938182,10.8152727 C5.04283636,10.5989455 4.77141818,10.4745818 4.48581818,10.4745818 C4.20021818,10.4745818 3.9288,10.5989455 3.74225455,10.8152727 C3.048,11.6205818 2.04185455,12.0822545 0.981818182,12.0822545 C0.439527273,12.0822545 0,12.5217818 0,13.0640727 C0,13.6063636 0.439527273,14.0458909 0.981818182,14.0458909 C2.12389091,14.0458909 3.22450909,13.6973455 4.14861818,13.0640727 C4.26370909,12.9852 4.37661818,12.9026182 4.48592727,12.8150182 C4.59523636,12.9026182 4.70814545,12.9852 4.82323636,13.0640727 C5.74723636,13.6973455 6.84796364,14.0458909 7.98992727,14.0458909 C9.13189091,14.0458909 10.2326182,13.6973455 11.1567273,13.0640727 C11.2718182,12.9852 11.3847273,12.9026182 11.4940364,12.8150182 C11.6033455,12.9026182 11.7162545,12.9852 11.8313455,13.0640727 C12.7553455,13.6973455 13.8560727,14.0458909 14.9980364,14.0458909 C16.14,14.0458909 17.2407273,13.6973455 18.1647273,13.0640727 C18.2798182,12.9852 18.3926182,12.9026182 18.5020364,12.8150182 C18.6113455,12.9026182 18.7242545,12.9852 18.8393455,13.0640727 C19.7633455,13.6973455 20.8640727,14.0458909 22.0061455,14.0458909 C23.1482182,14.0458909 24.2488364,13.6973455 25.1728364,13.0640727 C25.2879273,12.9852 25.4007273,12.9026182 25.5101455,12.8150182 C25.6194545,12.9026182 25.7323636,12.9852 25.8474545,13.0640727 C26.7714545,13.6973455 27.8721818,14.0458909 29.0142545,14.0458909 C29.5565455,14.0458909 29.9960727,13.6063636 29.9960727,13.0640727 C29.9960727,12.5217818 29.5564364,12.0822545 29.0141455,12.0822545 Z" id="Path"></path>
                    <path d="M29.0141455,6.85647273 C27.9541091,6.85647273 26.9479636,6.39469091 26.2536,5.58949091 C26.0671636,5.37327273 25.7956364,5.2488 25.5100364,5.2488 C25.2244364,5.2488 24.9530182,5.37316364 24.7664727,5.58949091 C24.0723273,6.39458182 23.0661818,6.85636364 22.0060364,6.85636364 C20.9458909,6.85636364 19.9398545,6.39458182 19.2454909,5.58938182 C19.0590545,5.37316364 18.7875273,5.24869091 18.5019273,5.24869091 C18.2163273,5.24869091 17.9449091,5.37305455 17.7583636,5.58938182 C17.0642182,6.39447273 16.0580727,6.85625455 14.9979273,6.85625455 C13.9377818,6.85625455 12.9317455,6.39447273 12.2374909,5.58938182 C12.0509455,5.37305455 11.7795273,5.24869091 11.4939273,5.24869091 C11.2083273,5.24869091 10.9369091,5.37305455 10.7503636,5.58938182 C10.0561091,6.39458182 9.04996364,6.85636364 7.98981818,6.85636364 C6.92967273,6.85636364 5.92363636,6.39458182 5.22938182,5.58949091 C5.04283636,5.37316364 4.77141818,5.2488 4.48581818,5.2488 C4.20021818,5.2488 3.9288,5.37316364 3.74225455,5.58949091 C3.048,6.39469091 2.04185455,6.85647273 0.981818182,6.85647273 C0.439527273,6.85647273 0,7.296 0,7.83829091 C0,8.38058182 0.439527273,8.82010909 0.981818182,8.82010909 C2.12389091,8.82010909 3.22450909,8.47156364 4.14861818,7.83829091 C4.26370909,7.75941818 4.37650909,7.67683636 4.48592727,7.58923636 C4.59523636,7.67683636 4.70814545,7.75941818 4.82323636,7.83829091 C5.74723636,8.47156364 6.84796364,8.82010909 7.98992727,8.82010909 C9.13189091,8.82010909 10.2326182,8.47156364 11.1567273,7.83829091 C11.2718182,7.75941818 11.3846182,7.67683636 11.4940364,7.58923636 C11.6033455,7.67683636 11.7162545,7.75941818 11.8313455,7.83829091 C12.7553455,8.47156364 13.8560727,8.82010909 14.9980364,8.82010909 C16.14,8.82010909 17.2407273,8.47156364 18.1647273,7.83829091 C18.2798182,7.75941818 18.3926182,7.67683636 18.5020364,7.58923636 C18.6113455,7.67683636 18.7242545,7.75941818 18.8393455,7.83829091 C19.7634545,8.47156364 20.8640727,8.82010909 22.0061455,8.82010909 C23.1482182,8.82010909 24.2488364,8.47156364 25.1728364,7.83829091 C25.2879273,7.75941818 25.4007273,7.67683636 25.5101455,7.58923636 C25.6194545,7.67683636 25.7323636,7.75941818 25.8474545,7.83829091 C26.7715636,8.47156364 27.8721818,8.82010909 29.0142545,8.82010909 C29.5565455,8.82010909 29.9960727,8.38058182 29.9960727,7.83829091 C29.9960727,7.29610909 29.5564364,6.85647273 29.0141455,6.85647273 Z" id="Path"></path>
                    <path d="M0.981818182,3.59421818 C2.12389091,3.59421818 3.22450909,3.24567273 4.14861818,2.6124 C4.26370909,2.53352727 4.37650909,2.45094545 4.48592727,2.36334545 C4.59523636,2.45094545 4.70814545,2.53352727 4.82323636,2.6124 C5.74723636,3.24567273 6.84796364,3.59421818 7.98992727,3.59421818 C9.13189091,3.59421818 10.2326182,3.24567273 11.1567273,2.6124 C11.2718182,2.53352727 11.3846182,2.45094545 11.4940364,2.36334545 C11.6033455,2.45094545 11.7162545,2.53352727 11.8313455,2.6124 C12.7553455,3.24567273 13.8560727,3.59421818 14.9980364,3.59421818 C16.14,3.59421818 17.2407273,3.24567273 18.1647273,2.6124 C18.2798182,2.53352727 18.3926182,2.45094545 18.5020364,2.36334545 C18.6113455,2.45094545 18.7242545,2.53352727 18.8393455,2.6124 C19.7634545,3.24567273 20.8640727,3.59421818 22.0061455,3.59421818 C23.1482182,3.59421818 24.2488364,3.24567273 25.1728364,2.6124 C25.2879273,2.53352727 25.4007273,2.45094545 25.5101455,2.36334545 C25.6194545,2.45094545 25.7323636,2.53352727 25.8474545,2.6124 C26.7715636,3.24567273 27.8721818,3.59421818 29.0142545,3.59421818 C29.5565455,3.59421818 29.9960727,3.15469091 29.9960727,2.6124 C29.9960727,2.07010909 29.5565455,1.63058182 29.0142545,1.63058182 C27.9542182,1.63058182 26.9480727,1.1688 26.2537091,0.3636 C26.0672727,0.147381818 25.7957455,0.0229090909 25.5101455,0.0229090909 C25.2245455,0.0229090909 24.9531273,0.147272727 24.7665818,0.3636 C24.0724364,1.16869091 23.0662909,1.63047273 22.0061455,1.63047273 C20.946,1.63047273 19.9399636,1.16869091 19.2456,0.363490909 C19.0591636,0.147272727 18.7876364,0.0228 18.5020364,0.0228 C18.2164364,0.0228 17.9450182,0.147163636 17.7584727,0.363490909 C17.0643273,1.16858182 16.0581818,1.63036364 14.9980364,1.63036364 C13.9378909,1.63036364 12.9318545,1.16858182 12.2376,0.363490909 C12.0510545,0.147163636 11.7796364,0.0228 11.4940364,0.0228 C11.2084364,0.0228 10.9370182,0.147163636 10.7504727,0.363490909 C10.0562182,1.16869091 9.05007273,1.63047273 7.98992727,1.63047273 C6.92978182,1.63047273 5.92363636,1.1688 5.22949091,0.363709091 C5.04294545,0.147381818 4.77152727,0.0230181818 4.48592727,0.0230181818 C4.20032727,0.0230181818 3.92890909,0.147381818 3.74236364,0.363709091 C3.048,1.16890909 2.04185455,1.63058182 0.981818182,1.63058182 C0.439527273,1.63058182 0,2.07010909 0,2.6124 C0,3.15469091 0.439527273,3.59421818 0.981818182,3.59421818 Z" id="Path"></path>
                </g>
            </g>
        </g>
    </g>
</svg>